<?xml version="1.0" encoding="UTF-8" standalone="no" ?>
<!DOCTYPE svg PUBLIC "-//W3C//DTD SVG 1.1//EN" "http://www.w3.org/Graphics/SVG/1.1/DTD/svg11.dtd">
<svg xmlns="http://www.w3.org/2000/svg" xmlns:xlink="http://www.w3.org/1999/xlink" version="1.1" width="1280" height="1024" viewBox="0 0 1280 1024" xml:space="preserve">
<desc>Created with Fabric.js 4.4.0</desc>
<defs>
</defs>
<g transform="matrix(1 0 0 1 640 512)" id="background-logo"  >
<rect style="stroke: none; stroke-width: 0; stroke-dasharray: none; stroke-linecap: butt; stroke-dashoffset: 0; stroke-linejoin: miter; stroke-miterlimit: 4; fill: rgb(15,42,61); fill-rule: nonzero; opacity: 1;"  paint-order="stroke"  x="-640" y="-512" rx="0" ry="0" width="1280" height="1024" />
</g>
<g transform="matrix(1.9211538461538462 0 0 1.9211538461538462 757.639118259496 653.0593451568895)" id="shape-a4a737d0-df73-4470-9e7d-a70f50c84557"  >
<g style=""  paint-order="stroke"   >
		<g transform="matrix(1 0 0 1 2.842171e-14 -7.10543e-15)" id="path-01_00000086680951963986405550000016002839380870652305_"  >
<linearGradient id="SVGID_145082" gradientUnits="userSpaceOnUse" gradientTransform="matrix(1 0 0 1 -0.00000232883954254248 -0.00001999999999924285)"  x1="0" y1="0" x2="0" y2="72">
<stop offset="0%" style="stop-color:rgb(48,35,174);stop-opacity: 1"/>
<stop offset="100%" style="stop-color:rgb(200,109,215);stop-opacity: 1"/>
</linearGradient>
<path style="stroke: none; stroke-width: 1; stroke-dasharray: none; stroke-linecap: butt; stroke-dashoffset: 0; stroke-linejoin: miter; stroke-miterlimit: 4; fill: url(#SVGID_145082); fill-rule: nonzero; opacity: 1;"  paint-order="stroke"  transform=" translate(-149.99999883558024, -36.244600000000005)" d="M 111.22805 20.89458 C 31.73258 8.88621 -1.14805 39.85856 0.03052 39.62769 C 70.31961 25.85807 93.65563999999999 72.48922 93.65563999999999 72.48922 C 93.65563999999999 72.48922 94.41779 42.0993 199.61109 41.13865 C 294.9537 40.26793 300 -0.00002 300 -0.00002 C 287.51117 34.82431 190.72351 32.90295 111.22805 20.89458 z M 158.22836 38.45546 C 141.26777 39.30436 124.03527000000001 41.44093 108.38714000000002 48.37362 C 102.96095000000001 50.783590000000004 97.64494000000002 53.648 93.12203000000002 57.34783 C 89.67294000000003 53.530030000000004 85.75706000000002 50.14141 81.44974000000002 47.307500000000005 C 69.07914000000002 39.284940000000006 54.74852000000002 34.52857 40.29852000000002 31.862280000000005 C 55.00322000000002 33.7749 69.59604000000002 38.194030000000005 82.26925000000003 46.04075 C 86.24858000000003 48.55962 90.00404000000003 51.488240000000005 93.29385000000002 54.91811 C 97.73337000000002 51.46889 102.58258000000002 48.886179999999996 107.59676000000002 46.59352 C 123.41257000000002 39.32618 140.92411 37.25416 158.13215000000002 36.56782 C 181.01486000000003 35.36445 203.92166000000003 36.71938 226.74880000000002 34.744409999999995 C 204.07082 37.8685 181.02509 37.06803 158.22836 38.45546 z" stroke-linecap="round" />
</g>
</g>
</g>
<g transform="matrix(1.2919108707383975 0 0 1.2919108707383975 337.63002593554876 614.9896071195686)" id="logo-logo"  >
<g style=""  paint-order="stroke"   >
		<g transform="matrix(0.544252263369712 0 0 0.544252263369712 0 -29.063070863942613)"  >
<linearGradient id="SVGID_140_145079" gradientUnits="userSpaceOnUse" gradientTransform="matrix(1 0 0 1 -187 -135.3)"  x1="0" y1="0" x2="0" y2="271">
<stop offset="0%" style="stop-color:rgb(91,36,122);stop-opacity: 1"/>
<stop offset="100%" style="stop-color:rgb(27,206,223);stop-opacity: 1"/>
</linearGradient>
<polygon style="stroke: none; stroke-width: 1; stroke-dasharray: none; stroke-linecap: butt; stroke-dashoffset: 0; stroke-linejoin: miter; stroke-miterlimit: 4; fill: url(#SVGID_140_145079); fill-rule: nonzero; opacity: 1;"  paint-order="stroke"  points="-44.5,-20.100000000000023 -10.600000000000023,-112.10000000000002 -61.5,-135.3 187,-135.3 27.100000000000023,59.89999999999998 -65.10000000000002,11.199999999999989 -39,96.09999999999997 -89.30000000000001,78.30000000000001 -78.5,135.3 -144.9,42.30000000000001 -104.30000000000001,-37.80000000000001 -133.89999999999998,-25.30000000000001 -149.5,-7.600000000000023 -144.3,1.6999999999999886 -167.2,-2.400000000000034 -141.7,-38.30000000000001 -179.2,-8.400000000000034 -187,-36.69999999999999 -171.9,-36.69999999999999 -164.3,-44.30000000000001 -164.3,-56.69999999999999 -155.3,-56.69999999999999 -98.60000000000002,-111.80000000000001 -104.5,-81.19999999999999 -84.5,-81.19999999999999 -84.5,-64.30000000000001 " />
</g>
		<g transform="matrix(0.544252263369712 0 0 0.544252263369712 19.647506707646585 51.02364969091056)"  >
<polygon style="stroke: none; stroke-width: 1; stroke-dasharray: none; stroke-linecap: butt; stroke-dashoffset: 0; stroke-linejoin: miter; stroke-miterlimit: 4; fill: rgb(237,30,121); fill-rule: nonzero; opacity: 1;"  paint-order="stroke"  points="-69.99999999999994,-94.95000000000005 101.19999999999999,21.149999999999977 -19.899999999999977,-38.450000000000045 44.50000000000006,62.75 -38.799999999999955,-3.4500000000000455 -5.699999999999989,94.94999999999993 -101.19999999999999,-41.35000000000002 -50.299999999999955,-30.450000000000045 " />
</g>
</g>
</g>
<g transform="matrix(1.9211538461538462 0 0 1.9211538461538462 757.639118259496 577.0897753876588)" id="text-logo"  >
<g style=""  paint-order="stroke"   >
		<g transform="matrix(1 0 0 1 5.684342e-14 0)" id="text-logo-path-0"  >
<linearGradient id="SVGID_145083" gradientUnits="userSpaceOnUse" gradientTransform="matrix(1 0 0 1 2.759999999999991 -64.4)"  x1="0" y1="0" x2="0" y2="104">
<stop offset="0%" style="stop-color:rgb(48,35,174);stop-opacity: 1"/>
<stop offset="100%" style="stop-color:rgb(200,109,215);stop-opacity: 1"/>
</linearGradient>
<filter id="SVGID_145077" y="-82.11180124223603%" height="264.22360248447205%" x="-33.586956521739125%" width="167.17391304347825%" >
	<feGaussianBlur in="SourceAlpha" stdDeviation="13"></feGaussianBlur>
	<feOffset dx="-10" dy="14" result="oBlur" ></feOffset>
	<feFlood flood-color="rgb(0,0,0)" flood-opacity="1"/>
	<feComposite in2="oBlur" operator="in" />
	<feMerge>
		<feMergeNode></feMergeNode>
		<feMergeNode in="SourceGraphic"></feMergeNode>
	</feMerge>
</filter>
<path style="stroke: rgb(92,224,230); stroke-width: 2; stroke-dasharray: none; stroke-linecap: butt; stroke-dashoffset: 0; stroke-linejoin: miter; stroke-miterlimit: 4; fill: url(#SVGID_145083); fill-rule: nonzero; opacity: 1;filter: url(#SVGID_145077);"  paint-order="stroke"  transform=" translate(-135.24, 32.2)" d="M 48.76 -64.4 L 48.76 -15.27 L 42.5 -9.2 L 41.22 -9.2 L 34.96 -15.27 L 34.96 -64.4 L 25.76 -64.4 L 25.76 -15.27 L 19.5 -9.2 L 18.22 -9.2 L 11.96 -15.27 L 11.96 -64.4 L 2.76 -64.4 L 2.76 -11.41 L 14.54 0 L 23.18 0 L 30.36 -6.99 L 37.54 0 L 46.18 0 L 57.96 -11.41 L 57.96 -64.4 Z M 101.2 -64.4 L 101.2 -42.6 L 94.94 -36.52 L 93.66 -36.52 L 87.4 -42.6 L 87.4 -64.4 L 78.2 -64.4 L 78.2 -38.73 L 89.79 -27.51 L 89.79 0 L 98.99 0 L 98.99 -27.69 L 110.4 -38.73 L 110.4 -64.4 Z M 153.64 -64.4 L 153.64 -15.27 L 147.38 -9.2 L 146.1 -9.2 L 139.84 -15.27 L 139.84 -64.4 L 130.64 -64.4 L 130.64 -11.41 L 142.42 0 L 151.06 0 L 162.84 -11.41 L 162.84 -64.4 Z M 183.08 0 L 192.28 0 L 192.28 -16.56 L 201.39 -25.3 L 206.08 -20.52 L 206.08 0 L 215.28 0 L 215.28 -24.38 L 208.01 -31.74 L 215.28 -38.82 L 215.28 -50.42 C 215.28 -58.42 209.3 -64.4 201.3 -64.4 L 183.08 -64.4 Z M 192.28 -29.35 L 192.28 -55.2 L 201.3 -55.2 C 204.79 -55.2 206.08 -53.91 206.08 -50.42 L 206.08 -42.69 Z M 258.52 -64.4 L 258.52 -50.97 L 244.72 -64.31 L 235.52 -64.4 L 235.52 0 L 244.72 0 L 244.72 -51.52 L 258.52 -38.18 L 258.52 0 L 267.72 0 L 267.72 -64.4 Z" stroke-linecap="round" />
</g>
</g>
</g>
</svg>